<?xml version="1.0" encoding="UTF-8" standalone="no"?>
<!-- Created with Inkscape (http://www.inkscape.org/) -->

<svg
   width="195mm"
   height="45mm"
   viewBox="0 0 195 45"
   version="1.1"
   id="svg1"
   inkscape:version="1.3.2 (091e20e, 2023-11-25, custom)"
   sodipodi:docname="judging.svg"
   xmlns:inkscape="http://www.inkscape.org/namespaces/inkscape"
   xmlns:sodipodi="http://sodipodi.sourceforge.net/DTD/sodipodi-0.dtd"
   xmlns="http://www.w3.org/2000/svg"
   xmlns:svg="http://www.w3.org/2000/svg">
  <sodipodi:namedview
     id="namedview1"
     pagecolor="#505050"
     bordercolor="#ffffff"
     borderopacity="1"
     inkscape:showpageshadow="0"
     inkscape:pageopacity="0"
     inkscape:pagecheckerboard="1"
     inkscape:deskcolor="#505050"
     inkscape:document-units="mm"
     showgrid="false"
     inkscape:zoom="1.6340337"
     inkscape:cx="380.6531"
     inkscape:cy="208.38004"
     inkscape:window-width="2880"
     inkscape:window-height="1514"
     inkscape:window-x="-11"
     inkscape:window-y="-11"
     inkscape:window-maximized="1"
     inkscape:current-layer="layer1" />
  <defs
     id="defs1" />
  <g
     inkscape:label="Layer 1"
     inkscape:groupmode="layer"
     id="layer1">
    <rect
       style="fill:#121217;fill-opacity:1;stroke-width:1.03319"
       id="rect1"
       width="195"
       height="45"
       x="0"
       y="0"
       ry="4.8913045" />
    <rect
       style="fill:#434346;fill-opacity:1;stroke-width:0.64926"
       id="rect2"
       width="195"
       height="1"
       x="0"
       y="22"
       ry="0" />
    <rect
       style="fill:#f1f1e3;fill-opacity:1;stroke-width:0.839554"
       id="rect3"
       width="153.65228"
       height="27.249809"
       x="21.251711"
       y="3.3482404"
       ry="0"
       transform="rotate(3)" />
    <rect
       style="fill:#121217;fill-opacity:1;stroke-width:1.03319"
       id="rect1-9"
       width="195"
       height="45"
       x="-209.27859"
       y="47.093739"
       ry="4.8913045" />
    <rect
       style="fill:#434346;fill-opacity:1;stroke-width:0.64926"
       id="rect2-0"
       width="195"
       height="1"
       x="-209.27859"
       y="69.093742"
       ry="0" />
    <rect
       style="fill:#f1f1e3;fill-opacity:1;stroke-width:0.839554"
       id="rect3-3"
       width="153.65228"
       height="27.249809"
       x="-189.73656"
       y="55.093739"
       ry="0" />
    <path
       d="m 57.149508,84.05882 v 6.623371 q 0,1.497458 -0.849519,2.476565 -0.849519,0.971908 -2.152595,0.971908 -0.381564,0 -0.892716,-0.165584 v -2.829332 q 0.21598,0.09359 0.395963,0.09359 0.575945,0 0.575945,-0.928711 V 84.05882 Z m 8.581586,0 v 6.371395 q 0,1.68464 -1.007905,2.692545 -1.000705,1.007904 -2.670946,1.007904 -1.663042,0 -2.548558,-0.979107 -0.878317,-0.979107 -0.878317,-2.814933 V 84.05882 h 2.922923 v 6.270605 q 0,0.899914 0.640739,0.899914 0.619141,0 0.619141,-0.899914 V 84.05882 Z m 4.701154,2.822132 v 7.004935 H 67.509325 V 84.05882 h 3.808438 q 2.505363,0 3.923628,1.137492 1.68464,1.360671 1.68464,3.69325 0,2.231788 -1.439863,3.642854 -1.439864,1.411066 -3.707648,1.411066 -0.266375,0 -0.871118,-0.0288 v -2.886925 h 0.467956 q 2.555757,0 2.555757,-2.138197 0,-2.00861 -2.512561,-2.00861 z m 12.030056,1.497458 h 2.786135 q 0.899915,1.115894 0.899915,2.354177 0,1.439863 -1.0583,2.41897 -1.0511,0.979107 -2.591754,0.979107 -2.00141,0 -3.398077,-1.519056 -1.396667,-1.519056 -1.396667,-3.700448 0,-2.188593 1.418265,-3.642854 1.425465,-1.454262 3.556462,-1.454262 0.727131,0 1.612647,0.295172 v 2.922922 q -0.691134,-0.323969 -1.25988,-0.323969 -1.029502,0 -1.68464,0.640739 -0.647939,0.640739 -0.647939,1.663042 0,1.043901 0.604743,1.655843 0.604742,0.611942 1.634245,0.611942 0.655137,0 0.655137,-0.381564 0,-0.287973 -0.431959,-0.287973 h -0.698333 z m 7.796862,-4.31959 v 9.827067 H 87.336244 V 84.05882 Z m 1.763829,9.827067 v -6.378594 q 0,-1.677441 1.000705,-2.685345 1.007905,-1.007904 2.678146,-1.007904 1.663042,0 2.541359,0.979107 0.885515,0.979107 0.885515,2.814932 v 6.277804 h -2.922922 v -6.277804 q 0,-0.899914 -0.640739,-0.899914 -0.619141,0 -0.619141,0.899914 v 6.277804 z M 105.06816,88.37841 h 2.78613 q 0.89992,1.115894 0.89992,2.354177 0,1.439863 -1.0583,2.41897 -1.0511,0.979107 -2.59176,0.979107 -2.00141,0 -3.39807,-1.519056 -1.39667,-1.519056 -1.39667,-3.700448 0,-2.188593 1.41827,-3.642854 1.42546,-1.454262 3.55646,-1.454262 0.72713,0 1.61264,0.295172 v 2.922922 q -0.69113,-0.323969 -1.25988,-0.323969 -1.0295,0 -1.68464,0.640739 -0.64793,0.640739 -0.64793,1.663042 0,1.043901 0.60474,1.655843 0.60474,0.611942 1.63424,0.611942 0.65514,0 0.65514,-0.381564 0,-0.287973 -0.43196,-0.287973 h -0.69833 z"
       id="text3"
       style="font-size:14.7442px;line-height:1;font-family:'Bauhaus 93';-inkscape-font-specification:'Bauhaus 93, Normal';white-space:pre;inline-size:93.7639"
       transform="matrix(1.2913987,0.06767934,-0.07789248,1.4862771,1.0204279,-114.85759)"
       aria-label="JUDGING" />
  </g>
</svg>
