<?xml version="1.0" encoding="UTF-8" standalone="no"?>
<!-- Created with Inkscape (http://www.inkscape.org/) -->

<svg
   width="210mm"
   height="170mm"
   viewBox="0 0 210 170"
   version="1.1"
   id="svg1"
   inkscape:version="1.3.2 (091e20e, 2023-11-25, custom)"
   sodipodi:docname="tv.svg"
   xmlns:inkscape="http://www.inkscape.org/namespaces/inkscape"
   xmlns:sodipodi="http://sodipodi.sourceforge.net/DTD/sodipodi-0.dtd"
   xmlns="http://www.w3.org/2000/svg"
   xmlns:svg="http://www.w3.org/2000/svg">
  <sodipodi:namedview
     id="namedview1"
     pagecolor="#505050"
     bordercolor="#ffffff"
     borderopacity="1"
     inkscape:showpageshadow="0"
     inkscape:pageopacity="0"
     inkscape:pagecheckerboard="1"
     inkscape:deskcolor="#505050"
     inkscape:document-units="mm"
     inkscape:zoom="1.6340337"
     inkscape:cx="364.43557"
     inkscape:cy="352.8079"
     inkscape:window-width="2880"
     inkscape:window-height="1514"
     inkscape:window-x="-11"
     inkscape:window-y="-11"
     inkscape:window-maximized="1"
     inkscape:current-layer="layer1" />
  <defs
     id="defs1">
    <inkscape:path-effect
       effect="powerclip"
       id="path-effect6"
       is_visible="true"
       lpeversion="1"
       inverse="true"
       flatten="false"
       hide_clip="false"
       message="Use fill-rule evenodd on &lt;b&gt;fill and stroke&lt;/b&gt; dialog if no flatten result after convert clip to paths." />
    <inkscape:path-effect
       effect="powerclip"
       id="path-effect3"
       is_visible="true"
       lpeversion="1"
       inverse="true"
       flatten="false"
       hide_clip="false"
       message="Use fill-rule evenodd on &lt;b&gt;fill and stroke&lt;/b&gt; dialog if no flatten result after convert clip to paths." />
    <clipPath
       clipPathUnits="userSpaceOnUse"
       id="clipPath3">
      <path
         style="display:none;fill:#23232b;fill-opacity:1;stroke:none;stroke-width:1"
         d="m 25.097656,174.55014 c 0,0 151.071694,-1.78112 179.731604,-110.105837 28.6599,-108.324721 12.14402,110.591607 12.14402,110.591607 z"
         id="path3" />
      <path
         id="lpe_path-effect3"
         style="fill:#23232b;fill-opacity:1;stroke:none;stroke-width:1"
         class="powerclip"
         d="M -5,-5 H 215 V 175 H -5 Z m 30.097656,179.55014 191.875624,0.48577 c 0,0 16.51588,-218.916328 -12.14402,-110.591607 C 176.16935,172.76902 25.097656,174.55014 25.097656,174.55014 Z" />
    </clipPath>
    <clipPath
       clipPathUnits="userSpaceOnUse"
       id="clipPath6">
      <path
         style="display:none;fill:#1b1b23;fill-opacity:1;stroke:none;stroke-width:1"
         d="m 106.05784,161.92036 11.82019,-7.12449 c 0,0 62.66318,-29.79335 76.58833,-57.319809 C 208.39151,69.949597 214.7064,48.89995 214.7064,48.89995 l 11.82019,119.98299 z"
         id="path6" />
      <path
         id="lpe_path-effect6"
         style="fill:#1b1b23;fill-opacity:1;stroke:none;stroke-width:1"
         class="powerclip"
         d="M 5,5 H 205 V 165 H 5 Z M 106.05784,161.92036 226.52659,168.88294 214.7064,48.89995 c 0,0 -6.31489,21.049647 -20.24004,48.576111 -13.92515,27.526459 -76.58833,57.319809 -76.58833,57.319809 z" />
    </clipPath>
  </defs>
  <g
     inkscape:label="Layer 1"
     inkscape:groupmode="layer"
     id="layer1">
    <rect
       style="fill:#23232b;fill-opacity:1;stroke:none;stroke-width:3.5382"
       id="rect4"
       width="210"
       height="170"
       x="0"
       y="1.7763568e-15"
       ry="0" />
    <path
       style="fill:#2e2d32;fill-opacity:1;stroke:none;stroke-width:1.01488"
       id="rect1"
       width="210"
       height="170"
       x="0"
       y="2.220446e-16"
       clip-path="url(#clipPath3)"
       inkscape:path-effect="#path-effect3"
       sodipodi:type="rect"
       d="M 0,0 H 210 V 170 H 0 Z" />
    <rect
       style="fill:#1c1c29;fill-opacity:1;stroke:none;stroke-width:1.02421"
       id="rect2-17"
       width="190"
       height="150"
       x="10"
       y="10"
       ry="10.269361" />
    <path
       style="fill:#252529;fill-opacity:1;stroke:none;stroke-width:1.02422"
       id="rect2-1"
       width="190"
       height="150"
       x="10"
       y="10"
       ry="10.269361"
       clip-path="url(#clipPath6)"
       inkscape:path-effect="#path-effect6"
       sodipodi:type="rect"
       d="M 20.269361,10 H 189.73064 C 195.41987,10 200,14.580135 200,20.269361 V 149.73064 C 200,155.41987 195.41987,160 189.73064,160 H 20.269361 C 14.580135,160 10,155.41987 10,149.73064 V 20.269361 C 10,14.580135 14.580135,10 20.269361,10 Z" />
    <rect
       style="fill:#171719;fill-opacity:1;stroke:none;stroke-width:0.993664"
       id="rect2"
       width="185"
       height="145"
       x="12.5"
       y="12.5"
       ry="9.9270487" />
  </g>
</svg>
