<?xml version="1.0" encoding="UTF-8" standalone="no"?>
<!-- Created with Inkscape (http://www.inkscape.org/) -->

<svg
   width="145.00029mm"
   height="133.8316mm"
   viewBox="0 0 145.00029 133.8316"
   version="1.1"
   id="svg1"
   sodipodi:docname="logo25.svg"
   inkscape:version="1.3.2 (091e20e, 2023-11-25, custom)"
   xmlns:inkscape="http://www.inkscape.org/namespaces/inkscape"
   xmlns:sodipodi="http://sodipodi.sourceforge.net/DTD/sodipodi-0.dtd"
   xmlns="http://www.w3.org/2000/svg"
   xmlns:svg="http://www.w3.org/2000/svg">
  <sodipodi:namedview
     id="namedview1"
     pagecolor="#505050"
     bordercolor="#ffffff"
     borderopacity="1"
     inkscape:showpageshadow="0"
     inkscape:pageopacity="0"
     inkscape:pagecheckerboard="1"
     inkscape:deskcolor="#505050"
     inkscape:document-units="mm"
     inkscape:zoom="0.95459766"
     inkscape:cx="231.51115"
     inkscape:cy="702.39016"
     inkscape:window-width="2880"
     inkscape:window-height="1514"
     inkscape:window-x="-11"
     inkscape:window-y="-11"
     inkscape:window-maximized="1"
     inkscape:current-layer="layer1" />
  <defs
     id="defs1">
    <linearGradient
       id="linearGradient1"
       inkscape:swatch="gradient">
      <stop
         style="stop-color:#eaa01c;stop-opacity:1;"
         offset="0"
         id="stop1" />
      <stop
         style="stop-color:#eaa01c;stop-opacity:0;"
         offset="1"
         id="stop2" />
    </linearGradient>
  </defs>
  <g
     inkscape:label="Layer 1"
     inkscape:groupmode="layer"
     id="layer1">
    <rect
       style="display:inline;fill:none;stroke:#000000;stroke-width:0.999966;stroke-dasharray:none;stroke-opacity:1"
       id="rect1"
       width="19.000034"
       height="19.000034"
       x="-233.98396"
       y="16.809258"
       transform="scale(1,-1)" />
    <rect
       style="display:inline;fill:none;stroke:#000000;stroke-width:0.999966;stroke-dasharray:none;stroke-opacity:1"
       id="rect1-3"
       width="19.000034"
       height="19.000034"
       x="-233.98396"
       y="-2.1910923"
       transform="scale(1,-1)" />
    <rect
       style="display:inline;fill:none;stroke:#000000;stroke-width:0.999966;stroke-dasharray:none;stroke-opacity:1"
       id="rect1-7"
       width="19.000034"
       height="19.000034"
       x="-187.7796"
       y="16.544144"
       transform="scale(1,-1)" />
    <rect
       style="display:inline;fill:none;stroke:#000000;stroke-width:0.999966;stroke-dasharray:none;stroke-opacity:1"
       id="rect1-3-73"
       width="19.000034"
       height="19.000034"
       x="-187.7796"
       y="-2.4562061"
       transform="scale(1,-1)" />
    <g
       id="g7"
       transform="translate(-29.848162,-112.40641)">
      <rect
         style="display:inline;fill:#2aff80;stroke:#ffffff;stroke-width:0.999966;stroke-dasharray:none;stroke-opacity:1"
         id="rect1-7-43"
         width="19.000034"
         height="19.000034"
         x="130.84814"
         y="-131.95543"
         transform="scale(1,-1)" />
      <rect
         style="display:inline;fill:#2aff80;stroke:#ffffff;stroke-width:0.999966;stroke-dasharray:none;stroke-opacity:1"
         id="rect1-3-73-2"
         width="19.000034"
         height="19.000034"
         x="130.84814"
         y="-150.95578"
         transform="scale(1,-1)" />
    </g>
    <rect
       style="display:inline;fill:none;stroke:#000000;stroke-width:0.999966;stroke-dasharray:none;stroke-opacity:1"
       id="rect1-7-42"
       width="19.000034"
       height="19.000034"
       x="-233.98363"
       y="-73.191093"
       transform="scale(1,-1)" />
    <rect
       style="display:inline;fill:none;stroke:#000000;stroke-width:0.999966;stroke-dasharray:none;stroke-opacity:1"
       id="rect1-3-73-4"
       width="19.000034"
       height="19.000034"
       x="-233.98363"
       y="-92.191452"
       transform="scale(1,-1)" />
    <rect
       style="display:inline;fill:none;stroke:#000000;stroke-width:0.999966;stroke-dasharray:none;stroke-opacity:1"
       id="rect1-7-9"
       width="19.000034"
       height="19.000034"
       x="-65.98362"
       y="16.80891"
       transform="scale(1,-1)" />
    <rect
       style="display:inline;fill:none;stroke:#000000;stroke-width:0.999966;stroke-dasharray:none;stroke-opacity:1"
       id="rect1-3-73-0"
       width="19.000034"
       height="19.000034"
       x="-65.98362"
       y="-2.1914356"
       transform="scale(1,-1)" />
    <rect
       style="display:inline;fill:none;stroke:#000000;stroke-width:0.999966;stroke-dasharray:none;stroke-opacity:1"
       id="rect1-7-4"
       width="19.000034"
       height="19.000034"
       x="-103.98362"
       y="16.80891"
       transform="scale(1,-1)" />
    <rect
       style="display:inline;fill:none;stroke:#000000;stroke-width:0.999966;stroke-dasharray:none;stroke-opacity:1"
       id="rect1-3-73-6"
       width="19.000034"
       height="19.000034"
       x="-103.98362"
       y="-2.1914432"
       transform="scale(1,-1)" />
    <rect
       style="fill:none;stroke:#000000;stroke-width:0.999966;stroke-dasharray:none;stroke-opacity:1"
       id="rect1-3-7"
       width="19.000034"
       height="19.000034"
       x="-144.81476"
       y="16.450783"
       transform="scale(1,-1)" />
    <rect
       style="fill:#ff9955;stroke:#ffffff;stroke-width:0.999966;stroke-dasharray:none;stroke-opacity:1"
       id="rect1-3-7-8"
       width="19.000034"
       height="19.000034"
       x="24.999985"
       y="-19.500017"
       transform="scale(1,-1)" />
    <rect
       style="fill:none;stroke:#000000;stroke-width:0.999966;stroke-dasharray:none;stroke-opacity:1"
       id="rect1-3-7-0"
       width="19.000034"
       height="19.000034"
       x="-84.98362"
       y="-2.1910923"
       transform="scale(1,-1)" />
    <g
       id="g5"
       transform="translate(-31.64142,-92.08836)">
      <rect
         style="display:inline;fill:#ff5555;stroke:#ffffff;stroke-width:0.999966;stroke-dasharray:none;stroke-opacity:1"
         id="rect1-7-4-7"
         width="19.000034"
         height="19.000034"
         x="75.641403"
         y="-179.58838"
         transform="scale(1,-1)" />
      <rect
         style="display:inline;fill:#ff5555;stroke:#ffffff;stroke-width:0.999966;stroke-dasharray:none;stroke-opacity:1"
         id="rect1-3-73-6-4"
         width="19.000034"
         height="19.000034"
         x="75.641403"
         y="-198.58873"
         transform="scale(1,-1)" />
      <rect
         style="fill:#ff5555;stroke:#ffffff;stroke-width:0.999966;stroke-dasharray:none;stroke-opacity:1"
         id="rect1-3-7-0-3"
         width="19.000034"
         height="19.000034"
         x="94.641403"
         y="-198.58838"
         transform="scale(1,-1)" />
    </g>
    <rect
       style="fill:none;stroke:#000000;stroke-width:0.999966;stroke-dasharray:none;stroke-opacity:1"
       id="rect1-3-7-4"
       width="19.000034"
       height="19.000034"
       x="-233.98363"
       y="-21.191092"
       transform="scale(1,-1)" />
    <g
       id="g4"
       transform="translate(-29.765238,-112.06611)">
      <rect
         style="display:inline;fill:#00ccff;stroke:#ffffff;stroke-width:0.999966;stroke-dasharray:none;stroke-opacity:1"
         id="rect1-2"
         width="19.000034"
         height="19.000034"
         x="54.765221"
         y="-161.56613"
         transform="scale(1,-1)" />
      <rect
         style="display:inline;fill:#00ccff;stroke:#ffffff;stroke-width:0.999966;stroke-dasharray:none;stroke-opacity:1"
         id="rect1-3-0"
         width="19.000034"
         height="19.000034"
         x="54.765221"
         y="-180.56648"
         transform="scale(1,-1)" />
      <rect
         style="fill:#00ccff;stroke:#ffffff;stroke-width:0.999966;stroke-dasharray:none;stroke-opacity:1"
         id="rect1-3-7-4-0"
         width="19.000034"
         height="19.000034"
         x="54.765556"
         y="-199.56648"
         transform="scale(1,-1)" />
    </g>
    <rect
       style="display:inline;fill:none;stroke:#000000;stroke-width:0.999966;stroke-dasharray:none;stroke-opacity:1"
       id="rect1-7-0"
       width="19.000034"
       height="19.000034"
       x="-214.98363"
       y="-54.19109"
       transform="scale(1,-1)" />
    <rect
       style="display:inline;fill:none;stroke:#000000;stroke-width:0.999966;stroke-dasharray:none;stroke-opacity:1"
       id="rect1-3-73-9"
       width="19.000034"
       height="19.000034"
       x="-214.98363"
       y="-73.191429"
       transform="scale(1,-1)" />
    <g
       id="g6"
       transform="translate(-30.969766,-112.36683)">
      <rect
         style="display:inline;fill:#ffe680;stroke:#ffffff;stroke-width:0.999966;stroke-dasharray:none;stroke-opacity:1"
         id="rect1-7-42-1"
         width="19.000034"
         height="19.000034"
         x="112.96975"
         y="-199.86685"
         transform="scale(1,-1)" />
      <rect
         style="display:inline;fill:#ffe680;stroke:#ffffff;stroke-width:0.999966;stroke-dasharray:none;stroke-opacity:1"
         id="rect1-3-73-4-8"
         width="19.000034"
         height="19.000034"
         x="112.96975"
         y="-218.86722"
         transform="scale(1,-1)" />
      <rect
         style="display:inline;fill:#ffe680;stroke:#ffffff;stroke-width:0.999966;stroke-dasharray:none;stroke-opacity:1"
         id="rect1-7-0-4"
         width="19.000034"
         height="19.000034"
         x="131.96974"
         y="-180.86685"
         transform="scale(1,-1)" />
      <rect
         style="display:inline;fill:#ffe680;stroke:#ffffff;stroke-width:0.999966;stroke-dasharray:none;stroke-opacity:1"
         id="rect1-3-73-9-4"
         width="19.000034"
         height="19.000034"
         x="131.96974"
         y="-199.86719"
         transform="scale(1,-1)" />
    </g>
    <path
       d="m 8.7332631,125.67671 v 7.83073 q 0,2.0705 -1.2387607,3.30926 -1.2299125,1.23877 -3.2827159,1.23877 -2.0439552,0 -3.132295,-1.20337 Q 0,135.64873 0,133.39242 v -7.71571 h 3.5924061 v 7.70686 q 0,1.10603 0.7874979,1.10603 0.760953,0 0.760953,-1.10603 v -7.70686 z m 9.8039059,12.07791 h -3.309261 v -4.98158 q 0,-0.76096 -0.628228,-0.76096 -0.619381,0 -0.619381,0.76096 v 4.98158 h -3.30926 v -4.91965 q 0,-1.72541 1.141429,-2.90224 1.14143,-1.18567 2.79606,-1.18567 1.893534,0 3.034964,1.37149 0.893677,1.07064 0.893677,2.98187 z m 7.344082,-4.06136 3.282716,-0.12388 q -0.141573,1.91123 -1.424575,3.14115 -1.283002,1.22991 -3.123447,1.22991 -1.946624,0 -3.291564,-1.35379 -1.336092,-1.35379 -1.336092,-3.31811 0,-1.86699 1.353789,-3.19423 1.353788,-1.32725 3.247322,-1.32725 1.654631,0 2.919936,1.0441 1.265306,1.0441 1.574996,2.66334 l -3.353502,0.12387 q -0.433566,-0.56629 -1.097188,-0.56629 -0.566291,0 -0.929071,0.37163 -0.36278,0.37163 -0.36278,0.93792 0,0.57514 0.380477,0.96446 0.389325,0.38933 0.964464,0.38933 0.840587,0 1.194519,-0.98216 z m 8.91023,-4.9462 q 1.875838,0 3.211929,1.35379 1.344941,1.34494 1.344941,3.22963 0,1.91123 -1.362637,3.25617 -1.353789,1.34494 -3.273868,1.34494 -1.920079,0 -3.282716,-1.34494 -1.362636,-1.35379 -1.362636,-3.25617 0,-1.93778 1.362636,-3.25617 1.362637,-1.32725 3.362351,-1.32725 z m -0.08848,3.26502 q -0.530897,0 -0.902526,0.38933 -0.371628,0.38047 -0.371628,0.93792 0,0.54859 0.371628,0.93792 0.380477,0.38932 0.902526,0.38932 0.530897,0 0.902526,-0.38932 0.380476,-0.38933 0.380476,-0.93792 0,-0.55745 -0.371628,-0.93792 -0.371628,-0.38933 -0.911374,-0.38933 z m 18.130147,5.74254 h -3.30926 v -4.76038 q 0,-0.54859 -0.115028,-0.76095 -0.115028,-0.21236 -0.41587,-0.21236 -0.557442,0 -0.557442,0.98216 v 4.75153 h -3.309261 v -4.76038 q 0,-0.54859 -0.123876,-0.76095 -0.115028,-0.21236 -0.41587,-0.21236 -0.548594,0 -0.548594,0.98216 v 4.75153 h -3.309261 v -5.43285 q 0,-1.48651 0.999857,-2.52176 0.999857,-1.0441 2.424432,-1.0441 1.468816,0 2.636791,1.23876 1.300698,-1.23876 2.601397,-1.23876 1.654631,0 2.654488,1.20337 0.787497,0.93792 0.787497,2.73412 z m 14.042237,0 h -3.309261 v -4.76038 q 0,-0.54859 -0.115028,-0.76095 -0.115028,-0.21236 -0.41587,-0.21236 -0.557442,0 -0.557442,0.98216 v 4.75153 H 59.16852 v -4.76038 q 0,-0.54859 -0.123876,-0.76095 -0.115027,-0.21236 -0.415869,-0.21236 -0.548594,0 -0.548594,0.98216 v 4.75153 H 54.77092 v -5.43285 q 0,-1.48651 0.999857,-2.52176 0.999857,-1.0441 2.424431,-1.0441 1.468817,0 2.636791,1.23876 1.300699,-1.23876 2.601398,-1.23876 1.65463,0 2.654487,1.20337 0.787498,0.93792 0.787498,2.73412 z m 6.123016,-9.00756 q 1.875837,0 3.211929,1.35379 1.344941,1.34494 1.344941,3.22963 0,1.91123 -1.362637,3.25617 -1.353789,1.34494 -3.273868,1.34494 -1.920079,0 -3.282716,-1.34494 -1.362637,-1.35379 -1.362637,-3.25617 0,-1.93778 1.362637,-3.25617 1.362637,-1.32725 3.362351,-1.32725 z m -0.08848,3.26502 q -0.530898,0 -0.902526,0.38933 -0.371628,0.38047 -0.371628,0.93792 0,0.54859 0.371628,0.93792 0.380477,0.38932 0.902526,0.38932 0.530897,0 0.902525,-0.38932 0.380477,-0.38933 0.380477,-0.93792 0,-0.55745 -0.371628,-0.93792 -0.371628,-0.38933 -0.911374,-0.38933 z m 13.891816,5.74254 H 83.49247 v -4.98158 q 0,-0.76096 -0.628229,-0.76096 -0.61938,0 -0.61938,0.76096 v 4.98158 H 78.9356 v -4.91965 q 0,-1.72541 1.14143,-2.90224 1.141429,-1.18567 2.79606,-1.18567 1.893534,0 3.034963,1.37149 0.893678,1.07064 0.893678,2.98187 z m 11.29927,-7.75995 v 3.18539 h -0.999856 v 4.57456 h -3.592407 v -12.07791 h 3.592407 v 4.31796 z m 4.202939,-4.31796 v 12.07791 h -3.592406 v -12.07791 z m 7.06978,8.76865 v 3.42429 q -0.40702,0.0708 -0.74325,0.0708 -1.99087,0 -3.31811,-1.30955 -1.32724,-1.30955 -1.32724,-3.28272 0,-1.92007 1.33609,-3.25617 1.34494,-1.33609 3.26502,-1.33609 2.14128,0 3.3712,1.25646 1.23876,1.24761 1.23876,3.41544 v 4.32681 h -3.30926 v -4.08791 q 0,-0.69901 -0.34509,-1.11488 -0.33623,-0.41587 -0.91137,-0.41587 -0.52205,0 -0.90253,0.38048 -0.38047,0.38047 -0.38047,0.90252 0,0.54859 0.34508,0.90253 0.34508,0.35393 0.87598,0.35393 0.43357,0 0.80519,-0.23006 z m 11.16655,-0.7521 3.28271,-0.12388 q -0.14157,1.91123 -1.42457,3.14115 -1.283,1.22991 -3.12345,1.22991 -1.94662,0 -3.29156,-1.35379 -1.33609,-1.35379 -1.33609,-3.31811 0,-1.86699 1.35379,-3.19423 1.35378,-1.32725 3.24732,-1.32725 1.65463,0 2.91993,1.0441 1.26531,1.0441 1.575,2.66334 l -3.3535,0.12387 q -0.43357,-0.56629 -1.09719,-0.56629 -0.56629,0 -0.92907,0.37163 -0.36278,0.37163 -0.36278,0.93792 0,0.57514 0.38048,0.96446 0.38932,0.38933 0.96446,0.38933 0.84059,0 1.19452,-0.98216 z m 8.03425,-8.01655 v 12.07791 h -3.30926 v -12.07791 z m 5.07007,3.25617 -1.61924,3.21193 2.40674,5.60981 h -3.66319 l -2.0705,-5.76023 1.50421,-3.06151 z m 6.91936,0.12387 v 3.48623 q -0.69902,0 -0.96446,0.26545 -0.2566,0.2566 -0.32739,1.0264 -0.23006,2.55716 -1.98202,3.6101 -0.92907,0.5486 -2.63679,0.5486 h -0.46011 v -3.50393 h 0.15042 q 0.79635,0 1.13258,-0.32738 0.34509,-0.33624 0.39818,-1.16798 0.0708,-1.35379 0.24775,-1.90238 0.18581,-0.54859 0.74325,-1.08834 0.97332,-0.94677 2.69873,-0.94677 z"
       id="text7"
       style="font-size:18.1213px;line-height:1;font-family:'Bauhaus 93';-inkscape-font-specification:'Bauhaus 93, Normal';fill:#ffffff;stroke-width:1.07016"
       transform="scale(1.031561,0.96940463)"
       aria-label="Uncommon Hacks" />
  </g>
</svg>
