<?xml version="1.0" encoding="UTF-8" standalone="no"?>
<!-- Created with Inkscape (http://www.inkscape.org/) -->

<svg
   width="195mm"
   height="45mm"
   viewBox="0 0 195 45"
   version="1.1"
   id="svg1"
   inkscape:version="1.3.2 (091e20e, 2023-11-25, custom)"
   sodipodi:docname="about_us.svg"
   xmlns:inkscape="http://www.inkscape.org/namespaces/inkscape"
   xmlns:sodipodi="http://sodipodi.sourceforge.net/DTD/sodipodi-0.dtd"
   xmlns="http://www.w3.org/2000/svg"
   xmlns:svg="http://www.w3.org/2000/svg">
  <sodipodi:namedview
     id="namedview1"
     pagecolor="#505050"
     bordercolor="#ffffff"
     borderopacity="1"
     inkscape:showpageshadow="0"
     inkscape:pageopacity="0"
     inkscape:pagecheckerboard="1"
     inkscape:deskcolor="#505050"
     inkscape:document-units="mm"
     showgrid="false"
     inkscape:zoom="0.81701685"
     inkscape:cx="328.02261"
     inkscape:cy="272.3322"
     inkscape:window-width="2880"
     inkscape:window-height="1514"
     inkscape:window-x="-11"
     inkscape:window-y="-11"
     inkscape:window-maximized="1"
     inkscape:current-layer="layer1" />
  <defs
     id="defs1" />
  <g
     inkscape:label="Layer 1"
     inkscape:groupmode="layer"
     id="layer1">
    <rect
       style="fill:#121217;fill-opacity:1;stroke-width:1.03319"
       id="rect1"
       width="195"
       height="45"
       x="0"
       y="0"
       ry="4.8913045" />
    <rect
       style="fill:#434346;fill-opacity:1;stroke-width:0.64926"
       id="rect2"
       width="195"
       height="1"
       x="0"
       y="22"
       ry="0" />
    <rect
       style="fill:#f1f1e3;fill-opacity:1;stroke-width:0.839554"
       id="rect3"
       width="153.65228"
       height="27.249809"
       x="19.399187"
       y="11.831702"
       ry="0"
       transform="rotate(-2)" />
    <rect
       style="fill:#121217;fill-opacity:1;stroke-width:1.03319"
       id="rect1-9"
       width="195"
       height="45"
       x="-209.27859"
       y="47.093739"
       ry="4.8913045" />
    <rect
       style="fill:#434346;fill-opacity:1;stroke-width:0.64926"
       id="rect2-0"
       width="195"
       height="1"
       x="-209.27859"
       y="69.093742"
       ry="0" />
    <rect
       style="fill:#f1f1e3;fill-opacity:1;stroke-width:0.839554"
       id="rect3-3"
       width="153.65228"
       height="27.249809"
       x="-189.73656"
       y="55.093739"
       ry="0" />
    <path
       d="m 57.905437,88.954355 v 2.591754 h -0.84232 v 2.339778 h -2.922923 v -6.249006 q 0,-1.814228 0.986307,-2.814933 0.993505,-1.007904 2.786135,-1.007904 1.727836,0 2.555757,0.914313 0.827922,0.907114 0.827922,2.807733 v 6.349797 h -2.922923 v -6.155415 q 0,-0.575946 -0.136787,-0.799124 -0.136787,-0.223179 -0.489553,-0.223179 -0.683935,0 -0.683935,1.022303 v 1.223883 z m 5.16191,-4.895535 h 3.570861 q 3.174898,0 3.174898,2.498163 0,1.238283 -1.087097,2.059005 1.576651,0.683935 1.576651,2.440568 0,1.346272 -0.928712,2.145396 -0.453557,0.381564 -0.971908,0.53275 -0.518351,0.151185 -1.396667,0.151185 h -0.554348 v -2.52696 h 0.496753 q 0.439158,0 0.619141,-0.10799 0.179983,-0.115189 0.179983,-0.395962 0,-0.475155 -0.73433,-0.475155 h -0.561547 v -2.620551 q 0.806324,0 0.806324,-0.554347 0,-0.511152 -0.727131,-0.511152 h -0.539949 v 7.192117 h -2.922922 z m 13.073957,-0.244776 q 2.087801,0 3.57806,1.519055 1.497458,1.519056 1.497458,3.635655 0,2.152596 -1.504657,3.657253 -1.504657,1.504657 -3.657253,1.504657 -2.138197,0 -3.650053,-1.511857 -1.511857,-1.511856 -1.511857,-3.650053 0,-2.159795 1.519056,-3.657253 1.526255,-1.497457 3.729246,-1.497457 z m -0.08639,2.894125 q -0.899915,0 -1.533454,0.662337 -0.63354,0.662337 -0.63354,1.598248 0,0.935911 0.63354,1.598248 0.640739,0.662337 1.533454,0.662337 0.907114,0 1.533454,-0.655137 0.63354,-0.662337 0.63354,-1.605448 0,-0.94311 -0.63354,-1.598248 -0.62634,-0.662337 -1.533454,-0.662337 z M 89.496038,84.05882 v 6.371395 q 0,1.68464 -1.007905,2.692545 -1.000705,1.007904 -2.670946,1.007904 -1.663042,0 -2.548558,-0.979107 -0.878317,-0.979107 -0.878317,-2.814933 V 84.05882 h 2.922923 v 6.270605 q 0,0.899914 0.640739,0.899914 0.619141,0 0.619141,-0.899914 V 84.05882 Z m 6.054626,2.822132 v 7.004935 H 92.627742 V 86.880952 H 90.388754 V 84.05882 h 7.393698 v 2.822132 z M 109.45254,84.05882 v 6.371395 q 0,1.68464 -1.0079,2.692545 -1.00071,1.007904 -2.67095,1.007904 -1.66304,0 -2.54856,-0.979107 -0.87831,-0.979107 -0.87831,-2.814933 V 84.05882 h 2.92292 v 6.270605 q 0,0.899914 0.64074,0.899914 0.61914,0 0.61914,-0.899914 V 84.05882 Z m 6.393,-0.04319 v 2.800534 q -0.31677,-0.10799 -0.48956,-0.10799 -0.33117,0 -0.56874,0.244777 -0.23758,0.244776 -0.23758,0.590343 0,0.295172 0.25918,0.748729 l 0.22317,0.388763 q 0.60475,1.051101 0.60475,2.030208 0,1.432664 -1.02231,2.426169 -1.0151,0.993506 -2.48376,0.993506 -0.70553,0 -1.39667,-0.323969 v -2.84373 q 0.41756,0.266374 0.74153,0.266374 0.38157,0 0.63354,-0.215979 0.25918,-0.223179 0.25918,-0.554347 0,-0.21598 -0.41036,-0.943111 -0.65514,-1.15189 -0.65514,-2.303781 0,-1.389468 0.9863,-2.390173 0.99351,-1.007904 2.36858,-1.007904 0.60474,0 1.18789,0.201581 z"
       id="text3"
       style="font-size:14.7442px;line-height:1;font-family:'Bauhaus 93';-inkscape-font-specification:'Bauhaus 93, Normal';white-space:pre;inline-size:93.7639"
       transform="matrix(1.2913987,-0.06767934,0.07789248,1.4862771,-20.133034,-104.37703)"
       aria-label="ABOUT US" />
  </g>
</svg>
