<?xml version="1.0" encoding="UTF-8" standalone="no"?>
<!-- Created with Inkscape (http://www.inkscape.org/) -->

<svg
   width="195mm"
   height="45mm"
   viewBox="0 0 195 45"
   version="1.1"
   id="svg1"
   inkscape:version="1.3.2 (091e20e, 2023-11-25, custom)"
   sodipodi:docname="our_team.svg"
   xmlns:inkscape="http://www.inkscape.org/namespaces/inkscape"
   xmlns:sodipodi="http://sodipodi.sourceforge.net/DTD/sodipodi-0.dtd"
   xmlns="http://www.w3.org/2000/svg"
   xmlns:svg="http://www.w3.org/2000/svg">
  <sodipodi:namedview
     id="namedview1"
     pagecolor="#505050"
     bordercolor="#ffffff"
     borderopacity="1"
     inkscape:showpageshadow="0"
     inkscape:pageopacity="0"
     inkscape:pagecheckerboard="1"
     inkscape:deskcolor="#505050"
     inkscape:document-units="mm"
     showgrid="false"
     inkscape:zoom="1.6340337"
     inkscape:cx="271.72022"
     inkscape:cy="79.863714"
     inkscape:window-width="2880"
     inkscape:window-height="1514"
     inkscape:window-x="-11"
     inkscape:window-y="-11"
     inkscape:window-maximized="1"
     inkscape:current-layer="layer1" />
  <defs
     id="defs1" />
  <g
     inkscape:label="Layer 1"
     inkscape:groupmode="layer"
     id="layer1">
    <rect
       style="fill:#121217;fill-opacity:1;stroke-width:1.03319"
       id="rect1"
       width="195"
       height="45"
       x="0"
       y="0"
       ry="4.8913045" />
    <rect
       style="fill:#434346;fill-opacity:1;stroke-width:0.64926"
       id="rect2"
       width="195"
       height="1"
       x="0"
       y="22"
       ry="0" />
    <rect
       style="fill:#f1f1e3;fill-opacity:1;stroke-width:0.839554"
       id="rect3"
       width="153.65228"
       height="27.249809"
       x="19.82881"
       y="10.148461"
       ry="0"
       transform="rotate(-1)" />
    <rect
       style="fill:#121217;fill-opacity:1;stroke-width:1.03319"
       id="rect1-9"
       width="195"
       height="45"
       x="-209.27859"
       y="47.093739"
       ry="4.8913045" />
    <rect
       style="fill:#434346;fill-opacity:1;stroke-width:0.64926"
       id="rect2-0"
       width="195"
       height="1"
       x="-209.27859"
       y="69.093742"
       ry="0" />
    <rect
       style="fill:#f1f1e3;fill-opacity:1;stroke-width:0.839554"
       id="rect3-3"
       width="153.65228"
       height="27.249809"
       x="-189.73656"
       y="55.093739"
       ry="0" />
    <path
       d="m 61.983297,16.359592 q 2.839026,0 4.865504,2.065636 2.036267,2.065637 2.036267,4.943822 0,2.927134 -2.046057,4.973191 -2.046057,2.046057 -4.973191,2.046057 -2.907555,0 -4.963401,-2.055847 -2.055847,-2.055846 -2.055847,-4.963401 0,-2.936924 2.065636,-4.973191 2.075427,-2.036267 5.071089,-2.036267 z M 61.86582,20.29507 q -1.223718,0 -2.085216,0.900656 -0.861498,0.900657 -0.861498,2.173324 0,1.272667 0.861498,2.173324 0.871288,0.900656 2.085216,0.900656 1.233508,0 2.085216,-0.890867 0.861498,-0.900656 0.861498,-2.183113 0,-1.282457 -0.861498,-2.173324 Q 63.099328,20.29507 61.86582,20.29507 Z m 18.277456,-3.602627 v 8.663925 q 0,2.290801 -1.370564,3.661366 -1.360775,1.370564 -3.631996,1.370564 -2.261431,0 -3.46557,-1.331405 -1.194349,-1.331406 -1.194349,-3.827791 v -8.536659 h 3.974637 v 8.526869 q 0,1.223718 0.871287,1.223718 0.841918,0 0.841918,-1.223718 v -8.526869 z m 6.392704,3.592837 v 9.770167 H 82.561343 V 16.692443 h 5.100458 q 2.32996,0 3.612416,1.15519 1.429303,1.292247 1.429303,3.279565 0,2.026478 -1.771944,3.416621 l 2.290801,5.511628 h -4.170432 l -1.92858,-4.307489 v -3.436201 h 0.313272 q 1.253087,0 1.253087,-1.076872 0,-0.949605 -1.448882,-0.949605 z m 18.84526,0.244744 v 9.525423 h -3.97464 v -9.525423 h -3.044606 v -3.837581 h 10.054066 v 3.837581 z m 11.63022,1.360774 v 2.976083 h -2.59428 q -0.52865,0 -0.75381,0.156636 -0.21538,0.156636 -0.21538,0.528646 0,0.420959 0.22517,0.558016 0.22516,0.127267 0.92023,0.127267 h 2.67261 v 3.818001 h -3.12293 q -2.2027,0 -3.36768,-1.047503 -1.16498,-1.057293 -1.16498,-3.044611 v -5.237515 q 0,-1.91879 1.09646,-2.976082 1.10624,-1.057293 3.10334,-1.057293 h 3.45579 v 3.837581 h -2.53555 q -1.02792,0 -1.02792,0.665702 0,0.39159 0.24474,0.548226 0.24474,0.146846 0.87129,0.146846 z m 7.38147,1.458672 v 3.524309 h -1.1454 v 3.181668 h -3.97464 v -8.4975 q 0,-2.467016 1.3412,-3.827791 1.35098,-1.370564 3.78863,-1.370564 2.34954,0 3.47536,1.243297 1.12582,1.233508 1.12582,3.818001 v 8.634557 h -3.97464 v -8.370233 q 0,-0.78318 -0.186,-1.086662 -0.18601,-0.303482 -0.6657,-0.303482 -0.93003,0 -0.93003,1.390144 v 1.664256 z m 6.74514,6.705977 v -9.633111 q 0,-1.791523 1.08666,-2.927134 1.08666,-1.13561 2.81944,-1.13561 2.05585,0 3.16209,1.889421 0.6755,-1.018134 1.44889,-1.448883 0.77339,-0.440538 1.909,-0.440538 1.80131,0 2.7607,1.13561 0.9594,1.135611 0.9594,3.269775 v 9.29047 h -3.97464 v -8.693295 q 0,-0.646123 -0.10768,-0.851708 -0.0979,-0.215374 -0.41117,-0.215374 -0.58739,0 -0.58739,0.998554 v 8.761823 h -3.97464 v -8.693295 q 0,-0.636334 -0.10768,-0.851708 -0.10769,-0.215374 -0.42096,-0.215374 -0.58739,0 -0.58739,1.067082 v 8.693295 z"
       id="text3"
       style="font-size:20.0494px;line-height:1;font-family:'Bauhaus 93';-inkscape-font-specification:'Bauhaus 93, Normal';stroke-width:1.18402"
       transform="matrix(0.93194924,-0.01872393,0.01626723,1.072693,0,0)"
       aria-label="OUR TEAM" />
  </g>
</svg>
