<?xml version="1.0" encoding="UTF-8" standalone="no"?>
<!-- Created with Inkscape (http://www.inkscape.org/) -->

<svg
   width="195mm"
   height="45mm"
   viewBox="0 0 195 45"
   version="1.1"
   id="svg1"
   inkscape:version="1.3.2 (091e20e, 2023-11-25, custom)"
   sodipodi:docname="registration.svg"
   xmlns:inkscape="http://www.inkscape.org/namespaces/inkscape"
   xmlns:sodipodi="http://sodipodi.sourceforge.net/DTD/sodipodi-0.dtd"
   xmlns="http://www.w3.org/2000/svg"
   xmlns:svg="http://www.w3.org/2000/svg">
  <sodipodi:namedview
     id="namedview1"
     pagecolor="#505050"
     bordercolor="#ffffff"
     borderopacity="1"
     inkscape:showpageshadow="0"
     inkscape:pageopacity="0"
     inkscape:pagecheckerboard="1"
     inkscape:deskcolor="#505050"
     inkscape:document-units="mm"
     showgrid="false"
     inkscape:zoom="1.6340337"
     inkscape:cx="271.72022"
     inkscape:cy="79.863714"
     inkscape:window-width="2880"
     inkscape:window-height="1514"
     inkscape:window-x="-11"
     inkscape:window-y="-11"
     inkscape:window-maximized="1"
     inkscape:current-layer="layer1" />
  <defs
     id="defs1" />
  <g
     inkscape:label="Layer 1"
     inkscape:groupmode="layer"
     id="layer1">
    <rect
       style="fill:#121217;fill-opacity:1;stroke-width:1.03319"
       id="rect1"
       width="195"
       height="45"
       x="0"
       y="0"
       ry="4.8913045" />
    <rect
       style="fill:#434346;fill-opacity:1;stroke-width:0.64926"
       id="rect2"
       width="195"
       height="1"
       x="0"
       y="22"
       ry="0" />
    <rect
       style="fill:#f1f1e3;fill-opacity:1;stroke-width:0.839554"
       id="rect3"
       width="153.65228"
       height="27.249809"
       x="21.251711"
       y="3.348242"
       ry="0"
       transform="rotate(3)" />
    <rect
       style="fill:#121217;fill-opacity:1;stroke-width:1.03319"
       id="rect1-9"
       width="195"
       height="45"
       x="-209.27859"
       y="47.093739"
       ry="4.8913045" />
    <rect
       style="fill:#434346;fill-opacity:1;stroke-width:0.64926"
       id="rect2-0"
       width="195"
       height="1"
       x="-209.27859"
       y="69.093742"
       ry="0" />
    <rect
       style="fill:#f1f1e3;fill-opacity:1;stroke-width:0.839554"
       id="rect3-3"
       width="153.65228"
       height="27.249809"
       x="-189.73656"
       y="55.093739"
       ry="0" />
    <path
       d="M 50.237221,15.227123 V 23.4788 H 46.880327 V 12.192689 h 4.307739 q 1.967834,0 3.05097,0.975649 1.207159,1.091404 1.207159,2.769852 0,1.71152 -1.496546,2.885606 L 55.88441,23.4788 h -3.522258 l -1.628838,-3.638014 v -2.902143 h 0.264583 q 1.058331,0 1.058331,-0.909503 0,-0.802017 -1.223696,-0.802017 z m 12.790926,1.355987 v 2.513537 H 60.83707 q -0.446483,0 -0.636652,0.132291 -0.181901,0.132292 -0.181901,0.446484 0,0.355533 0.190169,0.471288 0.190169,0.107487 0.777212,0.107487 H 63.24312 V 23.4788 h -2.63756 q -1.860348,0 -2.844265,-0.884699 -0.983917,-0.892967 -0.983917,-2.571414 v -4.423494 q 0,-1.62057 0.92604,-2.513537 0.934308,-0.892967 2.621023,-0.892967 h 2.918679 v 3.24114 h -2.141467 q -0.868162,0 -0.868162,0.562238 0,0.330729 0.206705,0.46302 0.206705,0.124023 0.735871,0.124023 z m 6.920494,0.570507 h 3.199799 q 1.033526,1.281573 1.033526,2.703706 0,1.653642 -1.215427,2.778119 -1.207159,1.124477 -2.976557,1.124477 -2.298563,0 -3.902596,-1.744593 -1.604033,-1.744593 -1.604033,-4.249861 0,-2.513537 1.628837,-4.183716 1.637107,-1.670179 4.084498,-1.670179 0.835089,0 1.852079,0.338997 v 3.356894 q -0.793748,-0.372069 -1.446937,-0.372069 -1.182354,0 -1.934762,0.735871 -0.744139,0.73587 -0.744139,1.909957 0,1.198891 0.69453,1.901689 0.69453,0.702798 1.876884,0.702798 0.752408,0 0.752408,-0.438216 0,-0.330728 -0.496093,-0.330728 h -0.802017 z m 8.954474,-4.960928 V 23.4788 H 75.54622 V 12.192689 Z m 7.557146,-0.04961 v 3.216335 q -0.363801,-0.124023 -0.562238,-0.124023 -0.380338,0 -0.653189,0.281119 -0.272851,0.281119 -0.272851,0.677993 0,0.338997 0.297656,0.859894 l 0.256314,0.446484 q 0.69453,1.207159 0.69453,2.331636 0,1.645374 -1.174086,2.786388 -1.165818,1.141013 -2.852534,1.141013 -0.810284,0 -1.604033,-0.37207 v -3.265944 q 0.479557,0.305924 0.851626,0.305924 0.438215,0 0.727603,-0.248046 0.297656,-0.256315 0.297656,-0.636653 0,-0.248046 -0.471289,-1.083135 -0.752407,-1.322914 -0.752407,-2.645829 0,-1.595765 1.132745,-2.745046 1.141014,-1.15755 2.720242,-1.15755 0.69453,0 1.364255,0.23151 z m 6.614572,3.290749 V 23.4788 h -3.356894 v -8.044971 h -2.571415 v -3.24114 h 8.491455 v 3.24114 z M 100.2351,15.227123 V 23.4788 H 96.878209 V 12.192689 h 4.307741 q 1.96783,0 3.05097,0.975649 1.20716,1.091404 1.20716,2.769852 0,1.71152 -1.49655,2.885606 l 1.93476,4.655004 h -3.52226 l -1.62883,-3.638014 v -2.902143 h 0.26458 q 1.05833,0 1.05833,-0.909503 0,-0.802017 -1.22369,-0.802017 z m 10.86444,2.587951 v 2.976557 h -0.96738 V 23.4788 h -3.3569 v -7.176809 q 0,-2.08359 1.13275,-3.232871 1.14101,-1.15755 3.1998,-1.15755 1.98437,0 2.93521,1.050063 0.95085,1.041795 0.95085,3.224603 V 23.4788 h -3.3569 v -7.069322 q 0,-0.661457 -0.15709,-0.917772 -0.1571,-0.256314 -0.56224,-0.256314 -0.78548,0 -0.78548,1.174086 v 1.405596 z m 10.83963,-2.381245 V 23.4788 h -3.3569 v -8.044971 h -2.57141 v -3.24114 h 8.49145 v 3.24114 z m 7.16026,-3.24114 V 23.4788 h -3.35689 V 12.192689 Z m 7.60676,-0.281119 q 2.39779,0 4.10931,1.744593 1.71978,1.744593 1.71978,4.175447 0,2.472196 -1.72805,4.200253 -1.72806,1.728056 -4.20025,1.728056 -2.45566,0 -4.19199,-1.736325 -1.73632,-1.736324 -1.73632,-4.191984 0,-2.480463 1.74459,-4.200252 1.75286,-1.719788 4.28293,-1.719788 z m -0.0992,3.323822 q -1.03353,0 -1.76113,0.760675 -0.72761,0.760676 -0.72761,1.835543 0,1.074868 0.72761,1.835544 0.73587,0.760675 1.76113,0.760675 1.04179,0 1.76112,-0.752407 0.72761,-0.760676 0.72761,-1.843812 0,-1.083135 -0.72761,-1.835543 -0.71933,-0.760675 -1.76112,-0.760675 z M 143.883,23.4788 v -7.325637 q 0,-1.926493 1.14928,-3.084043 1.15755,-1.15755 3.07578,-1.15755 1.90995,0 2.91868,1.124477 1.01699,1.124477 1.01699,3.232871 V 23.4788 h -3.3569 v -7.209882 q 0,-1.033526 -0.73587,-1.033526 -0.71106,0 -0.71106,1.033526 V 23.4788 Z"
       id="text3"
       style="font-size:16.9333px;line-height:1;font-family:'Bauhaus 93';-inkscape-font-specification:'Bauhaus 93, Normal'"
       transform="rotate(3)"
       aria-label="REGISTRATION" />
  </g>
</svg>
