<?xml version="1.0" encoding="UTF-8" standalone="no"?>
<!-- Created with Inkscape (http://www.inkscape.org/) -->

<svg
   width="195mm"
   height="45mm"
   viewBox="0 0 195 45"
   version="1.1"
   id="svg1"
   inkscape:version="1.3.2 (091e20e, 2023-11-25, custom)"
   sodipodi:docname="speakers.svg"
   xmlns:inkscape="http://www.inkscape.org/namespaces/inkscape"
   xmlns:sodipodi="http://sodipodi.sourceforge.net/DTD/sodipodi-0.dtd"
   xmlns="http://www.w3.org/2000/svg"
   xmlns:svg="http://www.w3.org/2000/svg">
  <sodipodi:namedview
     id="namedview1"
     pagecolor="#505050"
     bordercolor="#ffffff"
     borderopacity="1"
     inkscape:showpageshadow="0"
     inkscape:pageopacity="0"
     inkscape:pagecheckerboard="1"
     inkscape:deskcolor="#505050"
     inkscape:document-units="mm"
     showgrid="false"
     inkscape:zoom="1.6340337"
     inkscape:cx="271.72022"
     inkscape:cy="79.863714"
     inkscape:window-width="2880"
     inkscape:window-height="1514"
     inkscape:window-x="-11"
     inkscape:window-y="-11"
     inkscape:window-maximized="1"
     inkscape:current-layer="layer1" />
  <defs
     id="defs1" />
  <g
     inkscape:label="Layer 1"
     inkscape:groupmode="layer"
     id="layer1">
    <rect
       style="fill:#121217;fill-opacity:1;stroke-width:1.03319"
       id="rect1"
       width="195"
       height="45"
       x="0"
       y="0"
       ry="4.8913045" />
    <rect
       style="fill:#434346;fill-opacity:1;stroke-width:0.64926"
       id="rect2"
       width="195"
       height="1"
       x="0"
       y="22"
       ry="0" />
    <rect
       style="fill:#f1f1e3;fill-opacity:1;stroke-width:0.839554"
       id="rect3"
       width="153.65228"
       height="27.249809"
       x="19.82881"
       y="10.148461"
       ry="0"
       transform="rotate(-1)" />
    <rect
       style="fill:#121217;fill-opacity:1;stroke-width:1.03319"
       id="rect1-9"
       width="195"
       height="45"
       x="-209.27859"
       y="47.093739"
       ry="4.8913045" />
    <rect
       style="fill:#434346;fill-opacity:1;stroke-width:0.64926"
       id="rect2-0"
       width="195"
       height="1"
       x="-209.27859"
       y="69.093742"
       ry="0" />
    <rect
       style="fill:#f1f1e3;fill-opacity:1;stroke-width:0.839554"
       id="rect3-3"
       width="153.65228"
       height="27.249809"
       x="-189.73656"
       y="55.093739"
       ry="0" />
    <path
       d="m 57.900074,19.12612 v 3.892394 q -0.440271,-0.150093 -0.680418,-0.150093 -0.460283,0 -0.790486,0.340209 -0.330203,0.34021 -0.330203,0.820505 0,0.410252 0.360221,1.04064 l 0.310191,0.540332 q 0.840517,1.460898 0.840517,2.821735 0,1.991224 -1.420874,3.372073 -1.410867,1.380849 -3.452122,1.380849 -0.980603,0 -1.941194,-0.450277 v -3.95243 q 0.580357,0.370228 1.030634,0.370228 0.530326,0 0.880541,-0.300185 0.360222,-0.31019 0.360222,-0.770473 0,-0.300185 -0.570351,-1.310806 -0.91056,-1.600985 -0.91056,-3.201969 0,-1.931187 1.370843,-3.322043 1.380849,-1.400861 3.292024,-1.400861 0.840517,0 1.651015,0.280172 z m 6.503999,8.995531 v -3.582202 q 1.230757,0 1.230757,-0.940579 0,-0.860529 -0.940578,-0.860529 -0.950585,0 -0.950585,1.180726 v 8.925488 H 59.68117 v -8.505229 q 0,-1.320812 0.260159,-2.161329 0.270167,-0.850523 0.91056,-1.580972 0.720443,-0.810499 1.801108,-1.280788 1.080664,-0.470289 2.231372,-0.470289 2.081279,0 3.492147,1.400861 1.420873,1.400862 1.420873,3.472135 0,2.011237 -1.270781,3.262006 -1.160714,1.150707 -3.502153,1.150707 z m 14.358829,-3.622227 v 3.04187 h -2.651631 q -0.540332,0 -0.770473,0.160099 -0.220136,0.160098 -0.220136,0.540332 0,0.430264 0.230142,0.570351 0.230141,0.13008 0.940578,0.13008 h 2.73168 v 3.902399 h -3.191963 q -2.251384,0 -3.442116,-1.070658 -1.190732,-1.080665 -1.190732,-3.111914 v -5.353291 q 0,-1.961206 1.120689,-3.04187 1.130695,-1.080665 3.17195,-1.080665 h 3.532172 v 3.922412 h -2.591594 q -1.050646,0 -1.050646,0.680418 0,0.400246 0.250154,0.560345 0.250154,0.150092 0.890548,0.150092 z m 7.544638,1.490917 v 3.602214 h -1.17072 v 3.252 h -4.062497 v -8.68534 q 0,-2.52155 1.370843,-3.912406 1.380849,-1.400861 3.87238,-1.400861 2.401477,0 3.552184,1.270781 1.150708,1.260776 1.150708,3.9024 v 8.825426 H 86.95794 v -8.55526 q 0,-0.800492 -0.190117,-1.110683 -0.190117,-0.310191 -0.680418,-0.310191 -0.950585,0 -0.950585,1.420874 v 1.701046 z m 19.0317,-6.804184 -3.60221,6.193808 3.5822,7.46459 h -4.56281 l -3.091899,-7.544639 3.502149,-6.113759 z m -7.794793,0 V 32.844555 H 93.48195 V 19.186157 Z m 16.440113,5.313267 v 3.04187 h -2.65163 q -0.54034,0 -0.77048,0.160099 -0.22013,0.160098 -0.22013,0.540332 0,0.430264 0.23014,0.570351 0.23014,0.13008 0.94058,0.13008 h 2.73168 v 3.902399 h -3.19197 q -2.25138,0 -3.44211,-1.070658 -1.19073,-1.080665 -1.19073,-3.111914 v -5.353291 q 0,-1.961206 1.12068,-3.04187 1.1307,-1.080665 3.17195,-1.080665 h 3.53218 v 3.922412 h -2.5916 q -1.05064,0 -1.05064,0.680418 0,0.400246 0.25015,0.560345 0.25015,0.150092 0.89055,0.150092 z m 6.65409,-1.641009 v 9.98614 h -4.0625 V 19.186157 h 5.21321 q 2.38146,0 3.69227,1.180726 1.46089,1.320812 1.46089,3.352061 0,2.071274 -1.81111,3.492147 l 2.34144,5.633464 h -4.26262 l -1.97121,-4.402707 v -3.512159 h 0.32019 q 1.28079,0 1.28079,-1.100677 0,-0.970597 -1.48091,-0.970597 z m 14.60898,-3.732295 v 3.892394 q -0.44027,-0.150093 -0.68042,-0.150093 -0.46028,0 -0.79048,0.340209 -0.33021,0.34021 -0.33021,0.820505 0,0.410252 0.36023,1.04064 l 0.31019,0.540332 q 0.84051,1.460898 0.84051,2.821735 0,1.991224 -1.42087,3.372073 -1.41087,1.380849 -3.45212,1.380849 -0.98061,0 -1.9412,-0.450277 v -3.95243 q 0.58036,0.370228 1.03064,0.370228 0.53032,0 0.88054,-0.300185 0.36022,-0.31019 0.36022,-0.770473 0,-0.300185 -0.57035,-1.310806 -0.91056,-1.600985 -0.91056,-3.201969 0,-1.931187 1.37084,-3.322043 1.38085,-1.400861 3.29203,-1.400861 0.84051,0 1.65101,0.280172 z"
       id="text1"
       style="font-size:20.4926px;line-height:1;font-family:'Bauhaus 93';-inkscape-font-specification:'Bauhaus 93, Normal';stroke-width:1.2102"
       transform="matrix(1.0270031,-0.03586374,0.03396118,0.97252094,0,0)"
       aria-label="SPEAKERS" />
  </g>
</svg>
