<?xml version="1.0" encoding="UTF-8" standalone="no"?>
<!-- Created with Inkscape (http://www.inkscape.org/) -->

<svg
   width="195mm"
   height="45mm"
   viewBox="0 0 195 45"
   version="1.1"
   id="svg1"
   inkscape:version="1.3.2 (091e20e, 2023-11-25, custom)"
   sodipodi:docname="mlh.svg"
   xmlns:inkscape="http://www.inkscape.org/namespaces/inkscape"
   xmlns:sodipodi="http://sodipodi.sourceforge.net/DTD/sodipodi-0.dtd"
   xmlns="http://www.w3.org/2000/svg"
   xmlns:svg="http://www.w3.org/2000/svg">
  <sodipodi:namedview
     id="namedview1"
     pagecolor="#505050"
     bordercolor="#ffffff"
     borderopacity="1"
     inkscape:showpageshadow="0"
     inkscape:pageopacity="0"
     inkscape:pagecheckerboard="1"
     inkscape:deskcolor="#505050"
     inkscape:document-units="mm"
     showgrid="false"
     inkscape:zoom="1.6340337"
     inkscape:cx="380.6531"
     inkscape:cy="60.892257"
     inkscape:window-width="2880"
     inkscape:window-height="1514"
     inkscape:window-x="-11"
     inkscape:window-y="-11"
     inkscape:window-maximized="1"
     inkscape:current-layer="layer1" />
  <defs
     id="defs1" />
  <g
     inkscape:label="Layer 1"
     inkscape:groupmode="layer"
     id="layer1">
    <rect
       style="fill:#121217;fill-opacity:1;stroke-width:1.03319"
       id="rect1"
       width="195"
       height="45"
       x="0"
       y="0"
       ry="4.8913045" />
    <rect
       style="fill:#434346;fill-opacity:1;stroke-width:0.64926"
       id="rect2"
       width="195"
       height="1"
       x="0"
       y="22"
       ry="0" />
    <rect
       style="fill:#f1f1e3;fill-opacity:1;stroke-width:0.839554"
       id="rect3"
       width="153.65228"
       height="27.249809"
       x="19.82881"
       y="10.148459"
       ry="0"
       transform="rotate(-1)" />
    <rect
       style="fill:#121217;fill-opacity:1;stroke-width:1.03319"
       id="rect1-9"
       width="195"
       height="45"
       x="-209.27859"
       y="47.093739"
       ry="4.8913045" />
    <rect
       style="fill:#434346;fill-opacity:1;stroke-width:0.64926"
       id="rect2-0"
       width="195"
       height="1"
       x="-209.27859"
       y="69.093742"
       ry="0" />
    <rect
       style="fill:#f1f1e3;fill-opacity:1;stroke-width:0.839554"
       id="rect3-3"
       width="153.65228"
       height="27.249809"
       x="-189.73656"
       y="55.093739"
       ry="0" />
    <path
       d="M 54.140194,93.885887 V 86.80176 q 0,-1.317475 0.799124,-2.152596 0.799124,-0.83512 2.073403,-0.83512 1.511857,0 2.32538,1.389468 0.496752,-0.748729 1.065498,-1.065499 0.568746,-0.323969 1.403867,-0.323969 1.324674,0 2.030207,0.83512 0.705533,0.835121 0.705533,2.404572 v 6.832151 h -2.922922 v -6.392993 q 0,-0.475155 -0.07919,-0.62634 -0.07199,-0.158385 -0.302371,-0.158385 -0.431959,0 -0.431959,0.73433 v 6.443388 h -2.922922 v -6.392993 q 0,-0.467955 -0.07919,-0.62634 -0.07919,-0.158385 -0.30957,-0.158385 -0.431959,0 -0.431959,0.784725 v 6.392993 z M 66.112657,84.05882 h 2.922922 v 5.838646 q 0,0.683935 0.21598,0.914313 0.223179,0.223179 0.871117,0.223179 h 0.151186 v 2.850929 h -0.777526 q -1.598249,0 -2.490964,-0.928712 -0.892715,-0.935911 -0.892715,-2.591754 z m 8.883955,3.513267 v 2.591754 H 74.18309 v 3.722046 H 71.260167 V 84.05882 h 2.922923 v 3.513267 z m 3.419676,-3.513267 v 9.827067 H 75.493365 V 84.05882 Z"
       id="text3"
       style="font-size:14.7442px;line-height:1;font-family:'Bauhaus 93';-inkscape-font-specification:'Bauhaus 93, Normal';white-space:pre;inline-size:93.7639"
       transform="matrix(1.2913987,-0.06767933,0.07789248,1.4862771,5.4883968,-104.91578)"
       aria-label="MLH" />
  </g>
</svg>
